<?xml version="1.0" encoding="UTF-8"?>
<svg version="1.1" xmlns="http://www.w3.org/2000/svg" width="500" height="500">
<path d="M0 0 C165 0 330 0 500 0 C500 165 500 330 500 500 C335 500 170 500 0 500 C0 335 0 170 0 0 Z " fill="#FEFEFE" transform="translate(0,0)"/>
<path d="M0 0 C0.99 0.33 1.98 0.66 3 1 C0.36 5.62 -2.28 10.24 -5 15 C-5.66 15 -6.32 15 -7 15 C-7.495 14.01 -7.495 14.01 -8 13 C-20.22859689 25.56828013 -29.98895289 39.93593832 -37 56 C-37.45375 57.01320312 -37.9075 58.02640625 -38.375 59.0703125 C-42.0199099 68.35977037 -43.21300944 80.61555429 -39.4375 90.0625 C-32.95655316 101.75981869 -22.40007341 107.87702932 -10 112 C-1.24337506 114.38155239 7.41808118 115.61273065 16.4375 116.4375 C33.34724193 118.17635917 48.80697978 120.76167267 60.24609375 134.51171875 C65.09054433 141.3845807 67.52068148 148.79650639 69 157 C68.319375 156.29875 67.63875 155.5975 66.9375 154.875 C65.96063223 153.91432341 64.98130515 152.95614348 64 152 C63.53851563 151.53078125 63.07703125 151.0615625 62.6015625 150.578125 C47.9390573 136.73433836 27.22980295 134.53135267 8.125 132.8125 C6.39051299 132.64765877 4.6561367 132.48164822 2.921875 132.31445312 C-0.26353935 132.00811294 -3.4494932 131.70945369 -6.63623047 131.41723633 C-9.70337673 131.12823984 -12.76906006 130.82832769 -15.83300781 130.50708008 C-16.54692688 130.43274246 -17.26084595 130.35840485 -17.99639893 130.28181458 C-29.9303877 128.6032509 -42.18138599 121.82710012 -50.43359375 113.09765625 C-59.7563371 100.61308473 -60.51142868 86.86764767 -58.74804688 71.85498047 C-54.37654041 46.94132009 -31.91683122 24.03276701 -13 9 C-12.67 8.34 -12.34 7.68 -12 7 C-12.66 6.67 -13.32 6.34 -14 6 C-13.15695313 5.65066406 -12.31390625 5.30132812 -11.4453125 4.94140625 C-10.34960938 4.48636719 -9.25390625 4.03132812 -8.125 3.5625 C-7.03445312 3.11003906 -5.94390625 2.65757812 -4.8203125 2.19140625 C-3.19441376 1.50456537 -1.57868226 0.78934113 0 0 Z " fill="#BC101D" transform="translate(120,156)"/>
<path d="M0 0 C7.77464789 6.6639839 7.77464789 6.6639839 10.4375 9.4375 C13.61514422 12.67278856 16.9628828 15.65916164 20.3984375 18.6171875 C21.28852819 19.38570483 22.16847119 20.16847119 23 21 C22.98700783 22.47376418 22.91746401 23.94709997 22.82421875 25.41796875 C22.14561513 35.70551007 22.14561513 35.70551007 25.41699219 45.13769531 C27.79512666 47.61859681 30.37293533 49.74947664 33.03149414 51.92016602 C36.4532927 54.8882849 38.38786433 56.90643421 39.06640625 61.48828125 C39.32362203 66.88981265 39.5054849 72.07128641 36.0546875 76.4921875 C34 78 34 78 32 78 C32 91.53 32 105.06 32 119 C28.7 118.34 25.4 117.68 22 117 C21.67 92.91 21.34 68.82 21 44 C18.36 46.31 15.72 48.62 13 51 C11.68 51.66 10.36 52.32 9 53 C9 73.46 9 93.92 9 115 C6.03 114.67 3.06 114.34 0 114 C0 76.38 0 38.76 0 0 Z " fill="#272C57" transform="translate(128,154)"/>
<path d="M0 0 C2.66735273 2.48952921 4.55746343 4.63408134 6 8 C5.34 8 4.68 8 4 8 C12.77202616 24.20083582 23.30800117 34.78134009 41.26171875 40.203125 C50.7144737 42.21813232 60.39822302 42.99796875 70 44 C73.48235915 44.36982099 76.96404094 44.74427963 80.44482422 45.12866211 C82.61871671 45.36836709 84.79349564 45.60022392 86.96923828 45.82250977 C105.44577645 47.84407433 122.40703934 53.19757577 134.55859375 68.04296875 C136.69345535 70.94152068 138.43933544 73.7486155 140 77 C139.67 77.66 139.34 78.32 139 79 C138.47792969 78.48050781 137.95585937 77.96101563 137.41796875 77.42578125 C121.29880524 62.15350899 99.44467891 61.45014854 78.375 60.9375 C55.39526925 60.33831175 34.92297388 59.63055467 18 42 C9.21997451 32.50904127 3.69542528 20.57865131 1 8 C0.01 8.33 -0.98 8.66 -2 9 C-1.125 1.125 -1.125 1.125 0 0 Z " fill="#2D325C" transform="translate(52,249)"/>
<path d="M0 0 C26.53846154 0 26.53846154 0 32.8125 5.4375 C36.41874854 9.66196258 37.43983486 12.26271107 37.23828125 17.98046875 C36.76594202 21.98373734 35.35610418 24.58412264 32.58203125 27.48046875 C25.92237205 32.72880944 18.02319926 31.33429997 10 31 C10 36.61 10 42.22 10 48 C6.7 48 3.4 48 0 48 C0 32.16 0 16.32 0 0 Z " fill="#31365F" transform="translate(359,205)"/>
<path d="M0 0 C5.00230198 2.45567552 8.49851535 5.9970307 11 11 C11.17603147 13.41249692 11.26744968 15.83150895 11.3125 18.25 C11.36857422 20.20679688 11.36857422 20.20679688 11.42578125 22.203125 C10.8536994 27.30462556 8.91847935 30.23352009 5.17578125 33.6796875 C0.15238167 36.90224572 -4.05593478 38.26557759 -10 37 C-14.5979835 35.22591079 -17.96664453 32.69531498 -20.5 28.4375 C-22.95590506 22.64858094 -23.26784045 15.78996154 -21.26953125 9.81640625 C-16.46186434 0.69165069 -9.52140016 -0.96964754 0 0 Z " fill="#2E325C" transform="translate(447,217)"/>
<path d="M0 0 C3.3 0 6.6 0 10 0 C10.33 8.25 10.66 16.5 11 25 C12.8871875 22.525 12.8871875 22.525 14.8125 20 C19.0523499 15.20653912 19.0523499 15.20653912 23.046875 14.3359375 C25.761393 14.37109965 28.32447305 14.54991135 31 15 C28.93687686 18.66415876 26.64127824 21.70548128 23.8125 24.8125 C23.09707031 25.60269531 22.38164062 26.39289063 21.64453125 27.20703125 C20.83048828 28.09455078 20.83048828 28.09455078 20 29 C20.43570312 29.67804688 20.87140625 30.35609375 21.3203125 31.0546875 C25.32175988 37.30803167 29.21714578 43.61210331 33 50 C29.10690632 50.7728936 25.8610865 51.02220114 22 50 C18.55961666 46.43655474 14 41.19316304 14 36 C13.34 36 12.68 36 12 36 C10.99740493 39.00778521 10.69685358 41.53820647 10.4375 44.6875 C10.35371094 45.68136719 10.26992188 46.67523438 10.18359375 47.69921875 C10.12300781 48.45847656 10.06242187 49.21773437 10 50 C6.7 50 3.4 50 0 50 C0 33.5 0 17 0 0 Z " fill="#2F345D" transform="translate(323,203)"/>
<path d="M0 0 C0.33 0 0.66 0 1 0 C0.93546631 0.88969482 0.93546631 0.88969482 0.86962891 1.79736328 C-0.11553881 13.4355957 -0.11553881 13.4355957 3.42138672 24.14208984 C5.79804145 26.62147612 8.37431047 28.7506151 11.03125 30.91992188 C14.45311794 33.88816014 16.3878427 35.90628814 17.06640625 40.48828125 C17.32362203 45.88981265 17.5054849 51.07128641 14.0546875 55.4921875 C12 57 12 57 10 57 C10 70.53 10 84.06 10 98 C6.7 97.34 3.4 96.68 0 96 C-0.15551814 86.58401124 -0.30365223 77.16794104 -0.4429636 67.75169849 C-0.50790606 63.37696385 -0.57516945 59.00229334 -0.64819336 54.62768555 C-1.26554923 17.45507787 -1.26554923 17.45507787 0 0 Z " fill="#343961" transform="translate(150,175)"/>
<path d="M0 0 C3.92127348 2.35276409 4.54276555 3.583649 6.125 7.875 C6.59735053 11.93382482 6.68182392 15.97923949 6.75 20.0625 C6.80097928 22.22274694 6.85550279 24.382914 6.9140625 26.54296875 C6.93162598 27.49453857 6.94918945 28.4461084 6.96728516 29.42651367 C7.02956453 32.01301431 7.02956453 32.01301431 8.125 34.875 C3.45833333 34.875 -1.20833333 34.875 -5.875 34.875 C-7.35558216 35.09483599 -8.83475795 35.32431974 -10.3125 35.5625 C-13.42962233 35.91509253 -14.70705732 35.94217707 -17.6875 34.75 C-21.470705 31.50725286 -23.65071344 29.44500593 -24.375 24.375 C-23.79130576 20.28914029 -22.8094178 18.7279062 -19.875 15.875 C-16.33717435 13.55129179 -13.28851323 13.66672974 -9.125 13.75 C-7.36929687 13.77707031 -7.36929687 13.77707031 -5.578125 13.8046875 C-4.24007813 13.83949219 -4.24007813 13.83949219 -2.875 13.875 C-3.84276098 10.07952079 -3.84276098 10.07952079 -5.875 6.875 C-8.20797433 6.83407063 -10.54205225 6.83258277 -12.875 6.875 C-13.205 7.865 -13.535 8.855 -13.875 9.875 C-16.845 9.875 -19.815 9.875 -22.875 9.875 C-22.65081061 5.95168566 -21.91547908 4.91371912 -19 2.125 C-13.30008662 -1.97893764 -6.59987187 -2.3871877 0 0 Z " fill="#2C315B" transform="translate(274.875,218.125)"/>
<path d="M0 0 C0 23.43 0 46.86 0 71 C-3.3 70.34 -6.6 69.68 -10 69 C-10 58.11 -10 47.22 -10 36 C-11.32 35.34 -12.64 34.68 -14 34 C-17.29884962 30.70115038 -16.97897731 26.48060013 -17.15014648 22.03735352 C-16.88235618 14.92934848 -13.5852962 11.19846897 -8.5625 6.4375 C-1.5588902 0 -1.5588902 0 0 0 Z " fill="#32365F" transform="translate(120,196)"/>
<path d="M0 0 C12.54 0 25.08 0 38 0 C38 2.64 38 5.28 38 8 C33.38 8 28.76 8 24 8 C24 20.87 24 33.74 24 47 C20.7 47 17.4 47 14 47 C14 33.8 14 20.6 14 7 C9.38 7 4.76 7 0 7 C0 4.69 0 2.38 0 0 Z " fill="#2D315B" transform="translate(185,206)"/>
<path d="M0 0 C4.68702107 1.68025284 7.34970435 3.77915878 10 8 C10.75 11.3125 10.75 11.3125 11 14 C7.95071529 14.28766837 5.03635826 14.46252769 2 14 C0.3125 11.5 0.3125 11.5 -1 9 C-4 8.25 -4 8.25 -7 9 C-9.08686892 10.36073536 -9.08686892 10.36073536 -10 13 C-10.58817541 18.00415908 -10.40337772 22.47599488 -8 27 C-6.89350443 28.31534788 -6.89350443 28.31534788 -4.125 28.3125 C-3.09375 28.209375 -2.0625 28.10625 -1 28 C-0.566875 27.34 -0.13375 26.68 0.3125 26 C2 24 2 24 4.1796875 23.734375 C6.4644882 23.74861052 8.72191881 23.82806934 11 24 C10.56489218 28.931222 8.45118597 31.54881403 5 35 C0.65089892 37.08000486 -3.21814196 37.50335348 -8 37 C-13.35962057 35.01829156 -16.21973681 32.02586038 -19 27 C-21.08582943 20.74251171 -21.1346802 13.39543597 -18.3125 7.4375 C-12.40977203 1.21570565 -8.45341878 -0.7840439 0 0 Z " fill="#2E335C" transform="translate(307,217)"/>
<path d="M0 0 C8.29523089 5.53015392 8.29523089 5.53015392 10 8 C10.54648794 11.41649805 10.4645762 14.78247707 10.390625 18.234375 C10.38496521 19.22753723 10.37930542 20.22069946 10.37347412 21.24395752 C10.35110026 24.41313059 10.30090106 27.5811692 10.25 30.75 C10.22993635 32.89972324 10.21168534 35.04946423 10.1953125 37.19921875 C10.15123197 42.46658232 10.08219654 47.73309888 10 53 C6.7 51.35 3.4 49.7 0 48 C0 32.16 0 16.32 0 0 Z " fill="#2D325B" transform="translate(166,228)"/>
<path d="M0 0 C0 2.97 0 5.94 0 9 C-1.11375 9.12375 -2.2275 9.2475 -3.375 9.375 C-7.03103677 9.6465813 -7.03103677 9.6465813 -9 12 C-9.37135915 14.52037964 -9.37135915 14.52037964 -9.4140625 17.4453125 C-9.47207031 19.05986328 -9.47207031 19.05986328 -9.53125 20.70703125 C-9.5621875 21.83496094 -9.593125 22.96289062 -9.625 24.125 C-9.68300781 25.82849609 -9.68300781 25.82849609 -9.7421875 27.56640625 C-9.83667601 30.37743956 -9.92223541 33.18846233 -10 36 C-13.3 36 -16.6 36 -20 36 C-20 24.45 -20 12.9 -20 1 C-17.03 1 -14.06 1 -11 1 C-10.67 1.66 -10.34 2.32 -10 3 C-9.195625 2.2575 -9.195625 2.2575 -8.375 1.5 C-5.40641555 -0.37489544 -3.44687573 -0.23501425 0 0 Z " fill="#2F345D" transform="translate(422,217)"/>
<path d="M0 0 C0 2.97 0 5.94 0 9 C-1.11375 9.12375 -2.2275 9.2475 -3.375 9.375 C-7.03103677 9.6465813 -7.03103677 9.6465813 -9 12 C-9.37135915 14.52037964 -9.37135915 14.52037964 -9.4140625 17.4453125 C-9.47207031 19.05986328 -9.47207031 19.05986328 -9.53125 20.70703125 C-9.5621875 21.83496094 -9.593125 22.96289062 -9.625 24.125 C-9.68300781 25.82849609 -9.68300781 25.82849609 -9.7421875 27.56640625 C-9.83667601 30.37743956 -9.92223541 33.18846233 -10 36 C-13.3 36 -16.6 36 -20 36 C-20 24.45 -20 12.9 -20 1 C-17.03 1 -14.06 1 -11 1 C-10.67 1.66 -10.34 2.32 -10 3 C-9.195625 2.2575 -9.195625 2.2575 -8.375 1.5 C-5.40641555 -0.37489544 -3.44687573 -0.23501425 0 0 Z " fill="#2F345D" transform="translate(248,217)"/>
<path d="M0 0 C0 11.22 0 22.44 0 34 C-1.65 33.34 -3.3 32.68 -5 32 C-5.91007812 31.67386719 -6.82015625 31.34773438 -7.7578125 31.01171875 C-10.42028483 28.62291517 -10.43968949 27.85265342 -10.8046875 24.39453125 C-10.86757477 22.53476951 -10.88913646 20.67327099 -10.875 18.8125 C-10.87491943 17.86028564 -10.87483887 16.90807129 -10.87475586 15.92700195 C-10.70781536 11.44439787 -10.43125783 8.68628456 -8.01171875 4.8359375 C-2.49875 0 -2.49875 0 0 0 Z " fill="#2D325C" transform="translate(104,228)"/>
<path d="M0 0 C3.5 0.4375 3.5 0.4375 5.4375 1.9375 C5.788125 2.4325 6.13875 2.9275 6.5 3.4375 C6.850625 2.9425 7.20125 2.4475 7.5625 1.9375 C10.44374289 -0.29313966 12.97009026 0.23769379 16.5 0.4375 C16.83 1.0975 17.16 1.7575 17.5 2.4375 C15.52 2.4375 13.54 2.4375 11.5 2.4375 C11.17 3.4275 10.84 4.4175 10.5 5.4375 C11.923125 5.623125 11.923125 5.623125 13.375 5.8125 C16.5 6.4375 16.5 6.4375 18.5 8.4375 C17.94444444 12.99305556 17.94444444 12.99305556 16.5 14.4375 C10.03846154 14.79647436 10.03846154 14.79647436 6.5 12.4375 C5.51 13.0975 4.52 13.7575 3.5 14.4375 C0 14.8125 0 14.8125 -3.5 14.4375 C-6.13769276 12.22524156 -6.44923246 10.84364032 -6.875 7.4375 C-6.24186108 2.37238863 -5.19492722 0.6493659 0 0 Z " fill="#F8E6E8" transform="translate(232.5,287.5625)"/>
<path d="M0 0 C0.99 0.66 1.98 1.32 3 2 C3.66 1.34 4.32 0.68 5 0 C7.68839385 -0.26991906 10.29141936 -0.08737357 13 0 C12.67 0.99 12.34 1.98 12 3 C9.525 2.505 9.525 2.505 7 2 C6.67 2.99 6.34 3.98 6 5 C8.31 5.66 10.62 6.32 13 7 C13.625 9.375 13.625 9.375 14 12 C12 14 12 14 8.5625 14.25 C5 14 5 14 2 12 C1.34 12.66 0.68 13.32 0 14 C-5.95169082 14.5410628 -5.95169082 14.5410628 -8.9375 13 C-10.65886567 9.75978228 -10.52960415 6.58042244 -10 3 C-7.82738374 -1.0896306 -4.19992962 -0.37499372 0 0 Z " fill="#FAEEEF" transform="translate(330,288)"/>
<path d="M0 0 C3.5 0.6875 3.5 0.6875 5.9375 2.5625 C8.15659679 7.00069358 8.13978876 10.81710807 7.5 15.6875 C6.4375 18.75 6.4375 18.75 4.5 20.6875 C1.0625 21.75 1.0625 21.75 -2.5 21.6875 C-5.44572605 19.51696501 -6.34060941 18.16567177 -7.5 14.6875 C-7.88679725 9.96857352 -7.87906283 7.53660073 -5.9375 3.1875 C-3.5 0.6875 -3.5 0.6875 0 0 Z " fill="#F6F6F8" transform="translate(441.5,224.3125)"/>
<path d="M0 0 C12.03647687 -0.43505338 12.03647687 -0.43505338 16 3 C17.42041821 5.84083641 17.31452272 7.85477278 17 11 C15.40234375 13.1796875 15.40234375 13.1796875 13 15 C8.60786271 15.53045136 4.44112074 15.17764483 0 15 C0 10.05 0 5.1 0 0 Z " fill="#F4F4F6" transform="translate(369,213)"/>
<path d="M0 0 C0.66 0 1.32 0 2 0 C2 0.66 2 1.32 2 2 C3.65 2 5.3 2 7 2 C7 2.66 7 3.32 7 4 C7.66 3.67 8.32 3.34 9 3 C11.6723621 2.86584528 14.32250488 2.95681459 17 3 C17 3.99 17 4.98 17 6 C14.03 5.505 14.03 5.505 11 5 C10.67 5.99 10.34 6.98 10 8 C11.134375 8.309375 12.26875 8.61875 13.4375 8.9375 C17 10 17 10 18 11 C18.04063832 12.66617115 18.042721 14.33388095 18 16 C14.95017742 17.52491129 11.77877461 17.14361434 8.4375 17.125 C7.73947266 17.12886719 7.04144531 17.13273437 6.32226562 17.13671875 C1.12663994 17.12663994 1.12663994 17.12663994 0 16 C-0.07244053 13.98035801 -0.08377188 11.95832876 -0.0625 9.9375 C-0.05347656 8.83277344 -0.04445313 7.72804688 -0.03515625 6.58984375 C-0.02355469 5.73519531 -0.01195312 4.88054687 0 4 C-0.66 3.67 -1.32 3.34 -2 3 C-1.34 3 -0.68 3 0 3 C0 2.01 0 1.02 0 0 Z " fill="#FAEEEF" transform="translate(414,285)"/>
<path d="M0 0 C0.66 0 1.32 0 2 0 C2 6.6 2 13.2 2 20 C0.68 20 -0.64 20 -2 20 C-3.010625 20.0825 -4.02125 20.165 -5.0625 20.25 C-8 20 -8 20 -9.875 18.4375 C-11.43641373 15.05443692 -11.46048843 12.68390741 -11 9 C-9.3125 6.5 -9.3125 6.5 -7 5 C-2.7 5.3 -2.7 5.3 -1 7 C-0.67 4.69 -0.34 2.38 0 0 Z " fill="#C6353F" transform="translate(315,282)"/>
<path d="M0 0 C2.41486943 2.41486943 2.2961925 3.12707789 2.3125 6.4375 C2.32925781 7.21996094 2.34601563 8.00242187 2.36328125 8.80859375 C1.91487517 11.51349497 1.17638646 12.37537349 -1 14 C-4.63031776 14.54068562 -6.32214079 14.46379841 -9.375 12.375 C-11.4753727 9.30522452 -11.53293835 7.65443439 -11 4 C-8.77784432 -1.27761975 -5.05635676 -0.48155779 0 0 Z " fill="#C5323D" transform="translate(388,288)"/>
<path d="M0 0 C1.9375 1 1.9375 1 3 3 C3.52960415 6.58042244 3.65886567 9.75978228 1.9375 13 C-1.16867275 14.60318593 -3.57990979 14.42751128 -7 14 C-8.9375 12.4375 -8.9375 12.4375 -10 10 C-10.61818182 4.12727273 -10.61818182 4.12727273 -8.9375 1.0625 C-5.88023824 -0.6140629 -3.4093712 -0.36528977 0 0 Z " fill="#C32A36" transform="translate(278,288)"/>
<path d="M0 0 C9 0 9 0 11.625 1.6875 C13 4 13 4 12.9375 6.5625 C11.44067797 10.45423729 11.44067797 10.45423729 9 12 C5.3125 12.1875 5.3125 12.1875 2 12 C2 14.31 2 16.62 2 19 C1.34 19 0.68 19 0 19 C0 12.73 0 6.46 0 0 Z " fill="#C32A35" transform="translate(353,283)"/>
<path d="M0 0 C0.99 0.66 1.98 1.32 3 2 C3 2.66 3 3.32 3 4 C2.37351563 3.9278125 1.74703125 3.855625 1.1015625 3.78125 C0.28429687 3.6884375 -0.53296875 3.595625 -1.375 3.5 C-2.18710938 3.4071875 -2.99921875 3.314375 -3.8359375 3.21875 C-5.96912825 2.96647649 -5.96912825 2.96647649 -8 3 C-8.02696365 4.79158489 -8.04637917 6.58328473 -8.0625 8.375 C-8.07410156 9.37273437 -8.08570313 10.37046875 -8.09765625 11.3984375 C-8.18006602 13.98432453 -8.18006602 13.98432453 -7 16 C-4.69 16 -2.38 16 0 16 C0.33 14.35 0.66 12.7 1 11 C-0.65 11 -2.3 11 -4 11 C-4 10.34 -4 9.68 -4 9 C-1.36 9 1.28 9 4 9 C4 12.3 4 15.6 4 19 C3.01 18.67 2.02 18.34 1 18 C0.34 18.33 -0.32 18.66 -1 19 C-7.34117647 19.46117647 -7.34117647 19.46117647 -9.875 17.6875 C-12.43435284 13.84847075 -12.7551415 9.46141068 -12 5 C-8.59868826 0.05263747 -5.87424462 -0.76147615 0 0 Z " fill="#C6333E" transform="translate(220,283)"/>
<path d="M0 0 C3.4375 0.375 3.4375 0.375 5.4375 2.375 C5.5625 5 5.5625 5 5.4375 7.375 C2.4675 7.375 -0.5025 7.375 -3.5625 7.375 C-3.2325 8.695 -2.9025 10.015 -2.5625 11.375 C0.4075 11.87 0.4075 11.87 3.4375 12.375 C3.4375 11.715 3.4375 11.055 3.4375 10.375 C4.0975 10.375 4.7575 10.375 5.4375 10.375 C5.4375 11.365 5.4375 12.355 5.4375 13.375 C2.3542365 14.91663175 -0.17128099 14.67247535 -3.5625 14.375 C-6.20019276 12.16274156 -6.51173246 10.78114032 -6.9375 7.375 C-6.29954702 2.27137615 -5.25262848 0.55290826 0 0 Z " fill="#C22530" transform="translate(404.5625,287.625)"/>
<path d="M0 0 C3.4375 0.375 3.4375 0.375 5.4375 2.375 C5.5625 5 5.5625 5 5.4375 7.375 C2.4675 7.375 -0.5025 7.375 -3.5625 7.375 C-3.2325 8.695 -2.9025 10.015 -2.5625 11.375 C0.4075 11.87 0.4075 11.87 3.4375 12.375 C3.4375 11.715 3.4375 11.055 3.4375 10.375 C4.0975 10.375 4.7575 10.375 5.4375 10.375 C5.4375 11.365 5.4375 12.355 5.4375 13.375 C2.3542365 14.91663175 -0.17128099 14.67247535 -3.5625 14.375 C-6.20019276 12.16274156 -6.51173246 10.78114032 -6.9375 7.375 C-6.29954702 2.27137615 -5.25262848 0.55290826 0 0 Z " fill="#C22530" transform="translate(232.5625,287.625)"/>
<path d="M0 0 C2 2 2 2 2 7 C-1.3 7 -4.6 7 -8 7 C-7.34 8.32 -6.68 9.64 -6 11 C-2.95613276 11.08226668 -0.92824652 10.97608217 2 10 C1.34 11.32 0.68 12.64 0 14 C-6.30818278 14.35706695 -6.30818278 14.35706695 -8.9375 13 C-10.65886567 9.75978228 -10.52960415 6.58042244 -10 3 C-7.8297183 -1.08523614 -4.19706062 -0.38155097 0 0 Z " fill="#C1222D" transform="translate(330,288)"/>
<path d="M0 0 C1.8871875 0.061875 1.8871875 0.061875 3.8125 0.125 C4 3.5 4 3.5 3.8125 7.125 C0.15596173 9.56269218 -1.87750101 9.36444439 -6.1875 9.125 C-7.1875 8.125 -7.1875 8.125 -7.4375 5.1875 C-7.355 4.176875 -7.2725 3.16625 -7.1875 2.125 C-4.09861478 0.06574319 -3.47814073 -0.1140374 0 0 Z " fill="#F2F3F5" transform="translate(268.1875,236.875)"/>
<path d="M0 0 C0.94875 0.04125 1.8975 0.0825 2.875 0.125 C4.25625018 2.88750036 4.06579306 5.07231099 3.875 8.125 C1.875 10.125 1.875 10.125 -0.625 10.375 C-3.125 10.125 -3.125 10.125 -5.125 8.125 C-5.375 5.125 -5.375 5.125 -5.125 2.125 C-3.125 0.125 -3.125 0.125 0 0 Z " fill="#FBF3F3" transform="translate(275.125,289.875)"/>
<path d="M0 0 C2.5 0.25 2.5 0.25 4.5 2.25 C4.75 5.25 4.75 5.25 4.5 8.25 C2.5 10.25 2.5 10.25 0 10.5 C-2.5 10.25 -2.5 10.25 -4.5 8.25 C-4.75 5.25 -4.75 5.25 -4.5 2.25 C-2.5 0.25 -2.5 0.25 0 0 Z " fill="#FBF1F1" transform="translate(310.5,289.75)"/>
<path d="M0 0 C3 0.125 3 0.125 4 1.125 C4.1328125 2.9375 4.1328125 2.9375 4.125 5.125 C4.12757813 5.846875 4.13015625 6.56875 4.1328125 7.3125 C4 9.125 4 9.125 3 10.125 C0 10.25 0 10.25 -3 10.125 C-4 9.125 -4 9.125 -4.1328125 7.3125 C-4.13023437 6.590625 -4.12765625 5.86875 -4.125 5.125 C-4.12757813 4.403125 -4.13015625 3.68125 -4.1328125 2.9375 C-3.90343964 -0.1927649 -3.18691942 0.13278831 0 0 Z " fill="#FCF7F8" transform="translate(384,289.875)"/>
<path d="M0 0 C1.134375 0.020625 2.26875 0.04125 3.4375 0.0625 C3.7675 0.7225 4.0975 1.3825 4.4375 2.0625 C2.4575 2.0625 0.4775 2.0625 -1.5625 2.0625 C-1.8925 3.0525 -2.2225 4.0425 -2.5625 5.0625 C-1.61375 5.18625 -0.665 5.31 0.3125 5.4375 C3.4375 6.0625 3.4375 6.0625 5.4375 8.0625 C4.88194444 12.61805556 4.88194444 12.61805556 3.4375 14.0625 C0 14.3125 0 14.3125 -3.5625 14.0625 C-4.2225 13.0725 -4.8825 12.0825 -5.5625 11.0625 C-2.89583333 11.0625 -0.22916667 11.0625 2.4375 11.0625 C2.4375 10.4025 2.4375 9.7425 2.4375 9.0625 C0.1275 8.0725 -2.1825 7.0825 -4.5625 6.0625 C-4.605221 4.39638095 -4.60313832 2.72867115 -4.5625 1.0625 C-3.5625 0.0625 -3.5625 0.0625 0 0 Z " fill="#C63640" transform="translate(245.5625,287.9375)"/>
<path d="M0 0 C1.32 0 2.64 0 4 0 C5.546875 -0.061875 5.546875 -0.061875 7.125 -0.125 C10 0 10 0 12 2 C12.1953125 4.8203125 12.1953125 4.8203125 12.125 8.125 C12.10695313 9.22070312 12.08890625 10.31640625 12.0703125 11.4453125 C12.04710937 12.28835938 12.02390625 13.13140625 12 14 C11.34 14 10.68 14 10 14 C9.67 10.37 9.34 6.74 9 3 C7.68 2.67 6.36 2.34 5 2 C2.50494038 4.49505962 2.64051624 5.67328888 2.375 9.125 C2.30023438 10.03507812 2.22546875 10.94515625 2.1484375 11.8828125 C2.09945313 12.58148438 2.05046875 13.28015625 2 14 C1.34 14 0.68 14 0 14 C0 9.38 0 4.76 0 0 Z " fill="#C1222E" transform="translate(284,288)"/>
<path d="M0 0 C2.05078125 0.03255208 4.1015625 0.06510417 6.15234375 0.09765625 C5.82234375 1.08765625 5.49234375 2.07765625 5.15234375 3.09765625 C3.50234375 2.76765625 1.85234375 2.43765625 0.15234375 2.09765625 C-0.17765625 3.08765625 -0.50765625 4.07765625 -0.84765625 5.09765625 C1.46234375 5.75765625 3.77234375 6.41765625 6.15234375 7.09765625 C6.77734375 9.47265625 6.77734375 9.47265625 7.15234375 12.09765625 C5.15234375 14.09765625 5.15234375 14.09765625 1.65234375 14.41015625 C-0.08015625 14.25546875 -0.08015625 14.25546875 -1.84765625 14.09765625 C-2.50765625 13.10765625 -3.16765625 12.11765625 -3.84765625 11.09765625 C-1.18098958 11.09765625 1.48567708 11.09765625 4.15234375 11.09765625 C4.15234375 10.43765625 4.15234375 9.77765625 4.15234375 9.09765625 C1.84234375 8.10765625 -0.46765625 7.11765625 -2.84765625 6.09765625 C-2.89037725 4.4315372 -2.88829457 2.7638274 -2.84765625 1.09765625 C-1.84765625 0.09765625 -1.84765625 0.09765625 0 0 Z " fill="#C32A35" transform="translate(336.84765625,287.90234375)"/>
<path d="M0 0 C2.05078125 0.03255208 4.1015625 0.06510417 6.15234375 0.09765625 C6.15234375 1.08765625 6.15234375 2.07765625 6.15234375 3.09765625 C3.18234375 2.60265625 3.18234375 2.60265625 0.15234375 2.09765625 C-0.17765625 3.08765625 -0.50765625 4.07765625 -0.84765625 5.09765625 C0.85390625 5.56171875 0.85390625 5.56171875 2.58984375 6.03515625 C6.15234375 7.09765625 6.15234375 7.09765625 7.15234375 8.09765625 C7.19298207 9.7638274 7.19506475 11.4315372 7.15234375 13.09765625 C4.19569856 14.57597885 1.41004638 14.15798408 -1.84765625 14.09765625 C-2.17765625 13.10765625 -2.50765625 12.11765625 -2.84765625 11.09765625 C-0.20765625 11.42765625 2.43234375 11.75765625 5.15234375 12.09765625 C4.82234375 11.10765625 4.49234375 10.11765625 4.15234375 9.09765625 C3.16234375 8.64390625 2.17234375 8.19015625 1.15234375 7.72265625 C-1.84765625 6.09765625 -1.84765625 6.09765625 -2.78515625 3.47265625 C-2.80578125 2.68890625 -2.82640625 1.90515625 -2.84765625 1.09765625 C-1.84765625 0.09765625 -1.84765625 0.09765625 0 0 Z " fill="#C22833" transform="translate(424.84765625,287.90234375)"/>
<path d="M0 0 C5.75 -0.125 5.75 -0.125 8 1 C8.125 3.375 8.125 3.375 8 6 C6 8 6 8 2.875 8.125 C1.451875 8.063125 1.451875 8.063125 0 8 C0 5.36 0 2.72 0 0 Z " fill="#FBF4F4" transform="translate(355,285)"/>
<path d="M0 0 C0.66 0 1.32 0 2 0 C2 0.99 2 1.98 2 3 C3.65 3 5.3 3 7 3 C7 3.33 7 3.66 7 4 C5.35 4 3.7 4 2 4 C2.33 7.3 2.66 10.6 3 14 C4.32 14.33 5.64 14.66 7 15 C7 15.66 7 16.32 7 17 C5.02 17 3.04 17 1 17 C-0.32229189 14.35541621 -0.09677194 12.32238699 -0.0625 9.375 C-0.05347656 8.37210937 -0.04445312 7.36921875 -0.03515625 6.3359375 C-0.01775391 5.17964844 -0.01775391 5.17964844 0 4 C-0.66 3.67 -1.32 3.34 -2 3 C-1.34 3 -0.68 3 0 3 C0 2.01 0 1.02 0 0 Z " fill="#C1242F" transform="translate(254,285)"/>
<path d="M0 0 C0.66 0 1.32 0 2 0 C2 0.99 2 1.98 2 3 C3.32 3.33 4.64 3.66 6 4 C4.68 4 3.36 4 2 4 C2 7.63 2 11.26 2 15 C3.65 15 5.3 15 7 15 C7 15.66 7 16.32 7 17 C5.00045254 17.04254356 2.99958364 17.04080783 1 17 C0 16 0 16 -0.09765625 13.27734375 C-0.08605469 12.17519531 -0.07445312 11.07304687 -0.0625 9.9375 C-0.05347656 8.83277344 -0.04445313 7.72804688 -0.03515625 6.58984375 C-0.02355469 5.73519531 -0.01195312 4.88054687 0 4 C-0.66 3.67 -1.32 3.34 -2 3 C-1.34 3 -0.68 3 0 3 C0 2.01 0 1.02 0 0 Z " fill="#BE1723" transform="translate(414,285)"/>
<path d="M0 0 C0.66 0 1.32 0 2 0 C2.02888514 3.14581423 2.04675923 6.29159469 2.0625 9.4375 C2.07087891 10.33533203 2.07925781 11.23316406 2.08789062 12.15820312 C2.09111328 13.01220703 2.09433594 13.86621094 2.09765625 14.74609375 C2.10289307 15.53685303 2.10812988 16.3276123 2.11352539 17.14233398 C2 19 2 19 1 20 C-0.66617115 20.04063832 -2.33388095 20.042721 -4 20 C-4 19.34 -4 18.68 -4 18 C-2.68 18 -1.36 18 0 18 C0 12.06 0 6.12 0 0 Z " fill="#C32B36" transform="translate(393,288)"/>
<path d="M0 0 C0.66 0 1.32 0 2 0 C2 6.6 2 13.2 2 20 C1.34 20 0.68 20 0 20 C-0.74464946 13.12631267 -1.18225237 6.83079148 0 0 Z " fill="#BB0D1A" transform="translate(315,282)"/>
<path d="M0 0 C2.66666667 0 5.33333333 0 8 0 C8 0.66 8 1.32 8 2 C6.35 2.66 4.7 3.32 3 4 C2.67 7.3 2.34 10.6 2 14 C1.34 14 0.68 14 0 14 C0 9.38 0 4.76 0 0 Z " fill="#C32834" transform="translate(368,288)"/>
<path d="M0 0 C1.67542976 0.28604898 3.34385343 0.61781233 5 1 C5.33 2.32 5.66 3.64 6 5 C3.36 5 0.72 5 -2 5 C-1.125 1.125 -1.125 1.125 0 0 Z " fill="#F2D0D3" transform="translate(324,289)"/>
<path d="M0 0 C1.67542976 0.28604898 3.34385343 0.61781233 5 1 C5.33 2.32 5.66 3.64 6 5 C3.36 5 0.72 5 -2 5 C-1.125 1.125 -1.125 1.125 0 0 Z " fill="#F2D1D4" transform="translate(403,289)"/>
<path d="M0 0 C1.67542976 0.28604898 3.34385343 0.61781233 5 1 C5.33 2.32 5.66 3.64 6 5 C3.36 5 0.72 5 -2 5 C-1.125 1.125 -1.125 1.125 0 0 Z " fill="#F2D1D4" transform="translate(231,289)"/>
<path d="M0 0 C0.20625 0.639375 0.4125 1.27875 0.625 1.9375 C1.89538209 4.34925077 1.89538209 4.34925077 5.125 4.75 C6.07375 4.8325 7.0225 4.915 8 5 C8 4.34 8 3.68 8 3 C8.66 3 9.32 3 10 3 C10 3.99 10 4.98 10 6 C7.04335481 7.4783226 4.25770263 7.06032783 1 7 C-0.0625 5.1875 -0.0625 5.1875 -1 3 C-0.67 2.01 -0.34 1.02 0 0 Z " fill="#C63640" transform="translate(400,295)"/>
<path d="M0 0 C0.20625 0.639375 0.4125 1.27875 0.625 1.9375 C1.89538209 4.34925077 1.89538209 4.34925077 5.125 4.75 C6.07375 4.8325 7.0225 4.915 8 5 C8 4.34 8 3.68 8 3 C8.66 3 9.32 3 10 3 C10 3.99 10 4.98 10 6 C7.04335481 7.4783226 4.25770263 7.06032783 1 7 C-0.0625 5.1875 -0.0625 5.1875 -1 3 C-0.67 2.01 -0.34 1.02 0 0 Z " fill="#C63640" transform="translate(228,295)"/>
<path d="M0 0 C1.134375 0.020625 2.26875 0.04125 3.4375 0.0625 C3.7675 0.7225 4.0975 1.3825 4.4375 2.0625 C2.4575 2.0625 0.4775 2.0625 -1.5625 2.0625 C-1.2325 3.7125 -0.9025 5.3625 -0.5625 7.0625 C-1.8825 6.7325 -3.2025 6.4025 -4.5625 6.0625 C-4.605221 4.39638095 -4.60313832 2.72867115 -4.5625 1.0625 C-3.5625 0.0625 -3.5625 0.0625 0 0 Z " fill="#C1212D" transform="translate(245.5625,287.9375)"/>
<path d="M0 0 C6.625 -0.25 6.625 -0.25 10 2 C10 2.66 10 3.32 10 4 C6.7 3.34 3.4 2.68 0 2 C0 1.34 0 0.68 0 0 Z " fill="#BF1D29" transform="translate(213,283)"/>
<path d="M0 0 C0.66 0 1.32 0 2 0 C2 0.99 2 1.98 2 3 C3.65 3 5.3 3 7 3 C7 3.33 7 3.66 7 4 C3.625 4.625 3.625 4.625 0 5 C-0.66 4.34 -1.32 3.68 -2 3 C-1.34 3 -0.68 3 0 3 C0 2.01 0 1.02 0 0 Z " fill="#BD1420" transform="translate(254,285)"/>
</svg>
